<svg width="135" height="310" viewBox="0 0 135 310" fill="none" xmlns="http://www.w3.org/2000/svg">
<g id="pin">
<path id="Vector" d="M67.9903 0.567108C59.1905 0.567107 50.4767 2.30035 42.3467 5.66791C34.2167 9.03546 26.8297 13.9714 20.6072 20.1938C14.3848 26.4162 9.44891 33.8033 6.08136 41.9333C2.71381 50.0633 0.980528 58.777 0.98053 67.5768C0.98053 104.585 71.1812 241.084 71.1812 241.084C71.1812 241.084 135 104.585 135 67.5768C135 49.8047 127.94 32.7605 115.373 20.1938C102.807 7.62703 85.7624 0.567111 67.9903 0.567108ZM67.9903 112.25C61.0481 112.25 54.2618 110.191 48.4896 106.335C42.7173 102.478 38.2184 96.9957 35.5618 90.582C32.9051 84.1683 32.21 77.1107 33.5644 70.3019C34.9187 63.4931 38.2617 57.2389 43.1706 52.33C48.0795 47.4211 54.3337 44.0781 61.1425 42.7238C67.9513 41.3694 75.0089 42.0645 81.4226 44.7212C87.8364 47.3778 93.3182 51.8767 97.1751 57.649C101.032 63.4212 103.091 70.2075 103.091 77.1497C103.091 86.4588 99.3925 95.3868 92.8099 101.969C86.2273 108.552 77.2995 112.25 67.9903 112.25Z" fill="#2C5282"/>
</g>
<g id="shadow">
<path id="Vector_2" d="M68 309.5C105.003 309.5 135 299.65 135 287.5C135 275.35 105.003 265.5 68 265.5C30.9969 265.5 1 275.35 1 287.5C1 299.65 30.9969 309.5 68 309.5Z" fill="#2C5282"/>
</g>
</svg>
